<?xml version="1.0" encoding="UTF-8"?>
<svg id="Layer_2" xmlns="http://www.w3.org/2000/svg" viewBox="0 0 112.77 71.85">
  <defs>
    <style>
      .cls-1 {
        fill: #fff;
      }

      .cls-2 {
        opacity: 0;
      }
    </style>
  </defs>
  <g id="Layer_1-2" data-name="Layer_1">
    <rect class="cls-2" width="112.77" height="71.85"/>
    <g>
      <path class="cls-1" d="M19.07,57.3c-.35.92-1.56,3.3-4.68,3.3-2.56,0-5.06-1.75-5.06-5.8,0-2.41,1.37-5.58,5.14-5.58,2.79,0,3.94,1.79,4.4,3.34l-2.01.52c-.12-1.18-1.12-2.01-2.32-2.01-1.76,0-3.02,1.35-3.02,3.76,0,1.47.6,3.85,3,3.85,1.4,0,2.3-1.07,2.62-2.18l1.92.8Z"/>
      <path class="cls-1" d="M25.57,49.21c3.3,0,5.18,2.7,5.18,5.63,0,2.45-1.33,5.75-5.23,5.75-3.19,0-5.15-2.64-5.15-5.67s2.07-5.7,5.2-5.7ZM25.58,58.71c1.61,0,3.13-1.24,3.13-3.7,0-1.93-1.01-3.94-3.16-3.94-1.78,0-3.1,1.4-3.1,3.77,0,1.69.81,3.86,3.13,3.86Z"/>
      <path class="cls-1" d="M40.72,60.32c0-.26.2-8.89.2-8.89l-2.35,8.89h-1.82l-2.35-8.89s.2,8.54.2,8.89h-1.98v-10.83h2.94l2.12,8.04,2.09-8.04h2.93v10.83h-1.98Z"/>
      <path class="cls-1" d="M50,49.49c2.24,0,3.85,1.38,3.85,3.6,0,1.96-1.13,3.54-3.96,3.54h-2.07v3.68h-2.02v-10.83h4.2ZM47.83,54.98h1.78c1.44,0,2.16-.68,2.16-1.95,0-1.75-1.41-1.81-2.39-1.81h-1.55v3.76Z"/>
      <path class="cls-1" d="M61.38,60.32l-.63-2.12h-4.06l-.63,2.12h-2.18l3.67-10.83h2.3l3.7,10.83h-2.16ZM58.73,51.44l-1.5,4.98h2.99l-1.49-4.98Z"/>
      <path class="cls-1" d="M67.74,51.32v9h-2.02v-9h-2.94v-1.83h7.96v1.83h-2.99Z"/>
      <path class="cls-1" d="M72.28,60.32v-10.83h1.99v10.83h-1.99Z"/>
      <path class="cls-1" d="M82.24,49.49c2.27,0,3.28,1.26,3.28,2.65,0,.89-.49,2.05-1.79,2.24,1,.18,2.3,1,2.3,2.87,0,1.47-.86,3.07-3.65,3.07h-4.98v-10.83h4.85ZM79.41,53.85h2.04c.9,0,1.99-.29,1.99-1.37s-1.12-1.33-1.93-1.33h-2.1v2.7ZM79.41,58.57h2.67c1.38,0,1.89-.71,1.89-1.5,0-1.52-1.46-1.7-2.3-1.7h-2.25v3.21Z"/>
      <path class="cls-1" d="M88.62,60.32v-10.83h2.04v8.99h4.29v1.84h-6.33Z"/>
      <path class="cls-1" d="M96.24,60.32v-10.83h7.7v1.81h-5.71v2.55h5.23v1.75h-5.23v2.9h6.09v1.82h-8.08Z"/>
    </g>
    <g>
      <g>
        <path class="cls-1" d="M38.45,30.55h-6.71l-2.38,5.14h-4.84l11.16-22.98h5.51l2.81,22.98h-5.15l-.41-5.14ZM37.63,17.11h-.06l-4.23,9.55h4.81l-.52-9.55Z"/>
        <path class="cls-1" d="M59.85,17.38c-1.08-.66-2.67-1.18-4.02-1.18-1.62,0-2.99.79-3.29,2.5-.74,4.18,8.03,2.24,6.59,10.41-.77,4.35-4.45,6.98-8.7,6.98-2.6,0-4.72-.66-5.59-.95l1.07-4.48c1.39.63,2.57,1.42,4.44,1.42,1.59,0,3.27-.86,3.61-2.73.78-4.45-8.02-2.27-6.58-10.47.12-.69,1.4-6.55,8.57-6.55,1.96,0,3.12.36,4.88.79l-.97,4.28Z"/>
        <path class="cls-1" d="M64.32,12.7h5.02l-4.05,22.98h-5.02l4.05-22.98Z"/>
        <path class="cls-1" d="M80.41,12.31c6.16,0,8.19,5.14,7,11.89-1.19,6.75-5.04,11.89-11.19,11.89s-8.16-5.14-6.97-11.89c1.19-6.75,5.01-11.89,11.16-11.89ZM76.9,32.2c2.91,0,4.58-3.59,5.36-8,.78-4.41.37-8-2.54-8s-4.55,3.59-5.33,8c-.78,4.41-.4,8,2.51,8Z"/>
      </g>
      <polygon class="cls-1" points="6.09 24.89 24.42 10.6 19.38 39.18 6.09 24.89 6.09 24.89"/>
      <polygon class="cls-1" points="108.23 24.89 89.9 39.19 94.94 10.6 108.23 24.89 108.23 24.89"/>
    </g>
    <path class="cls-1" d="M106.57,15.44c-1.77,0-3.2-1.42-3.2-3.21s1.42-3.21,3.21-3.21,3.2,1.42,3.2,3.14c0,1.86-1.38,3.27-3.21,3.27ZM106.58,9.34c-1.59,0-2.87,1.3-2.87,2.91s1.27,2.89,2.87,2.89,2.88-1.3,2.88-2.84c0-1.68-1.24-2.96-2.88-2.96ZM106.5,10.21c.99,0,1.43.35,1.43,1.16,0,.62-.27.97-.86,1.13l.92,1.76h-.69l-.86-1.7h-.49v1.7h-.62v-4.05h1.17ZM105.96,12.01h.51c.58,0,.83-.19.83-.63s-.26-.62-.89-.62h-.45v1.25Z"/>
  </g>
</svg>