<?xml version="1.0" encoding="UTF-8" standalone="no"?>
<svg
   xmlns:dc="http://purl.org/dc/elements/1.1/"
   xmlns:cc="http://creativecommons.org/ns#"
   xmlns:rdf="http://www.w3.org/1999/02/22-rdf-syntax-ns#"
   xmlns:svg="http://www.w3.org/2000/svg"
   xmlns="http://www.w3.org/2000/svg"
   viewBox="0 0 154.96001 143.62666"
   height="143.62666"
   width="154.96001"
   xml:space="preserve"
   id="svg2"
   version="1.1"><metadata
     id="metadata8"><rdf:RDF><cc:Work
         rdf:about=""><dc:format>image/svg+xml</dc:format><dc:type
           rdf:resource="http://purl.org/dc/dcmitype/StillImage" /></cc:Work></rdf:RDF></metadata><defs
     id="defs6"><clipPath
       id="clipPath20"
       clipPathUnits="userSpaceOnUse"><path
         id="path18"
         d="M 0,107.72 H 116.22 V 0 H 0 Z" /></clipPath></defs><g
     transform="matrix(1.3333333,0,0,-1.3333333,0,143.62667)"
     id="g10"><path
       id="path12"
       style="fill:#231f20;fill-opacity:1;fill-rule:evenodd;stroke:none"
       d="M 114.371,34.564 H 1.604 v 71.854 h 112.767 z" /><g
       id="g14"><g
         clip-path="url(#clipPath20)"
         id="g16"><path
           id="path22"
           style="fill:none;stroke:#231f20;stroke-width:0.88800001;stroke-linecap:butt;stroke-linejoin:miter;stroke-miterlimit:10;stroke-dasharray:none;stroke-opacity:1"
           d="M 1.604,106.417 H 114.371 V 0.889 H 1.604 Z" /><g
           transform="translate(20.6743,49.1223)"
           id="g24"><path
             id="path26"
             style="fill:#ffffff;fill-opacity:1;fill-rule:nonzero;stroke:none"
             d="m 0,0 c -0.353,-0.92 -1.563,-3.297 -4.677,-3.297 -2.56,0 -5.06,1.748 -5.06,5.796 0,2.408 1.365,5.582 5.137,5.582 2.791,0 3.941,-1.794 4.401,-3.343 L -2.208,4.217 c -0.122,1.18 -1.119,2.009 -2.315,2.009 -1.764,0 -3.021,-1.35 -3.021,-3.757 0,-1.473 0.598,-3.85 3.005,-3.85 1.395,0 2.301,1.074 2.623,2.178 z" /></g><g
           transform="translate(27.189,47.7112)"
           id="g28"><path
             id="path30"
             style="fill:#ffffff;fill-opacity:1;fill-rule:nonzero;stroke:none"
             d="m 0,0 c 1.61,0 3.128,1.242 3.128,3.696 0,1.932 -1.012,3.941 -3.159,3.941 -1.779,0 -3.098,-1.396 -3.098,-3.773 C -3.129,2.177 -2.315,0 0,0 m -0.016,9.492 c 3.297,0 5.184,-2.699 5.184,-5.628 0,-2.453 -1.334,-5.75 -5.23,-5.75 -3.189,0 -5.152,2.637 -5.152,5.674 0,3.174 2.07,5.704 5.198,5.704" /></g><g
           transform="translate(42.3208,46.1009)"
           id="g32"><path
             id="path34"
             style="fill:#ffffff;fill-opacity:1;fill-rule:nonzero;stroke:none"
             d="M 0,0 C 0,0.261 0.199,8.895 0.199,8.895 L -2.147,0 h -1.825 l -2.346,8.895 c 0,0 0.199,-8.542 0.199,-8.895 h -1.979 v 10.827 h 2.945 l 2.116,-8.036 2.086,8.036 H 1.978 L 1.978,0 Z" /></g><g
           transform="translate(49.4312,51.4368)"
           id="g36"><path
             id="path38"
             style="fill:#ffffff;fill-opacity:1;fill-rule:nonzero;stroke:none"
             d="m 0,0 h 1.779 c 1.442,0 2.162,0.676 2.162,1.948 0,1.748 -1.411,1.81 -2.392,1.81 H 0 Z m 2.178,5.491 c 2.239,0 3.849,-1.381 3.849,-3.604 0,-1.963 -1.134,-3.542 -3.957,-3.542 H 0 V -5.336 H -2.023 V 5.491 Z" /></g><g
           transform="translate(60.332,54.9798)"
           id="g40"><path
             id="path42"
             style="fill:#ffffff;fill-opacity:1;fill-rule:nonzero;stroke:none"
             d="M 0,0 -1.503,-4.984 H 1.488 Z M 2.653,-8.879 2.024,-6.763 H -2.039 L -2.668,-8.879 H -4.846 L -1.181,1.948 H 1.12 L 4.815,-8.879 Z" /></g><g
           transform="translate(69.3467,55.1023)"
           id="g44"><path
             id="path46"
             style="fill:#ffffff;fill-opacity:1;fill-rule:nonzero;stroke:none"
             d="M 0,0 V -9.001 H -2.024 V 0 H -4.969 V 1.825 H 2.99 V 0 Z" /></g><path
           id="path48"
           style="fill:#ffffff;fill-opacity:1;fill-rule:nonzero;stroke:none"
           d="m 73.883,56.928 h 1.994 V 46.101 h -1.994 z" /><g
           transform="translate(81.0117,47.8489)"
           id="g50"><path
             id="path52"
             style="fill:#ffffff;fill-opacity:1;fill-rule:nonzero;stroke:none"
             d="m 0,0 h 2.669 c 1.38,0 1.886,0.705 1.886,1.503 0,1.518 -1.457,1.702 -2.3,1.702 H 0 Z m 0,4.723 h 2.04 c 0.904,0 1.993,0.292 1.993,1.365 0,1.104 -1.119,1.334 -1.931,1.334 L 0,7.422 Z m 2.837,4.356 c 2.269,0 3.282,-1.258 3.282,-2.653 0,-0.89 -0.491,-2.055 -1.794,-2.239 0.996,-0.185 2.3,-0.998 2.3,-2.869 0,-1.471 -0.858,-3.066 -3.649,-3.066 H -2.009 V 9.079 Z" /></g><g
           transform="translate(90.2246,46.1009)"
           id="g54"><path
             id="path56"
             style="fill:#ffffff;fill-opacity:1;fill-rule:nonzero;stroke:none"
             d="M 0,0 V 10.827 H 2.039 V 1.84 H 6.333 V 0 Z" /></g><g
           transform="translate(97.8447,46.1009)"
           id="g58"><path
             id="path60"
             style="fill:#ffffff;fill-opacity:1;fill-rule:nonzero;stroke:none"
             d="M 0,0 V 10.827 H 7.698 V 9.017 H 1.993 V 6.471 h 5.23 V 4.723 H 1.993 V 1.824 H 8.081 V 0 Z" /></g><g
           transform="translate(12.6108,27.2454)"
           id="g62"><path
             id="path64"
             style="fill:#231f20;fill-opacity:1;fill-rule:nonzero;stroke:none"
             d="M 0,0 -0.687,-3.996 H 0.676 Z M 1.145,-6.713 0.77,-4.475 h -1.541 l -0.384,-2.238 h -0.541 l 1.342,7.389 h 0.708 l 1.332,-7.389 z" /></g><g
           transform="translate(15.5239,22.9368)"
           id="g66"><path
             id="path68"
             style="fill:#231f20;fill-opacity:1;fill-rule:nonzero;stroke:none"
             d="m 0,0 v -0.582 c 0,-0.553 0,-0.854 0.219,-1.135 0.239,-0.302 0.635,-0.353 0.852,-0.353 0.729,0 0.948,0.488 0.948,1.207 0,0.791 -0.229,1.144 -1.073,1.976 -0.821,0.823 -1.279,1.281 -1.279,2.311 0,0.613 0.083,1.623 1.404,1.623 1.332,0 1.354,-0.998 1.354,-1.695 V 2.82 h -0.5 v 0.657 c 0,0.447 0,1.133 -0.863,1.133 -0.635,0 -0.885,-0.385 -0.885,-1.103 0,-0.718 0.145,-1.02 1.249,-2.144 0.76,-0.78 1.102,-1.166 1.102,-2.133 0,-0.697 -0.093,-1.748 -1.498,-1.748 -0.853,0 -1.54,0.437 -1.54,1.488 l 0,1.03 z" /></g><path
           id="path70"
           style="fill:#231f20;fill-opacity:1;fill-rule:nonzero;stroke:none"
           d="m 19.29,27.88 h 0.531 V 20.532 H 19.29 Z" /><g
           transform="translate(23.6802,26.0071)"
           id="g72"><path
             id="path74"
             style="fill:#231f20;fill-opacity:1;fill-rule:nonzero;stroke:none"
             d="m 0,0 c 0,1.165 -0.396,1.498 -0.999,1.498 -0.729,0 -0.988,-0.561 -0.988,-1.113 v -4.319 c 0,-0.739 0.301,-1.175 0.999,-1.175 0.842,0 0.988,0.728 0.988,1.258 z m -2.487,0.344 c 0,0.904 0.448,1.612 1.488,1.612 1.385,0 1.488,-0.999 1.488,-1.8 v -4.194 c 0,-0.666 -0.281,-1.53 -1.509,-1.53 -1.092,0 -1.467,0.634 -1.467,1.613 z" /></g><path
           id="path76"
           style="fill:#231f20;fill-opacity:1;fill-rule:nonzero;stroke:none"
           d="m 27.434,25.767 h 0.437 v -5.234 h -0.437 z m 0,1.426 h 0.448 v -0.811 h -0.448 z" /><g
           transform="translate(29.2544,22.3743)"
           id="g78"><path
             id="path80"
             style="fill:#231f20;fill-opacity:1;fill-rule:nonzero;stroke:none"
             d="m 0,0 v -0.457 c 0,-0.322 0,-0.979 0.812,-0.979 0.406,0 0.77,0.166 0.77,0.874 0,0.511 -0.125,0.656 -0.874,1.291 -0.594,0.5 -0.947,0.812 -0.947,1.561 0,0.447 0.114,1.124 1.102,1.124 1.083,0 1.093,-0.843 1.093,-1.249 V 1.801 H 1.509 v 0.364 c 0,0.562 -0.177,0.833 -0.646,0.833 -0.634,0 -0.655,-0.447 -0.655,-0.677 0,-0.489 0.021,-0.614 1.03,-1.446 0.5,-0.406 0.791,-0.697 0.791,-1.426 0,-0.769 -0.343,-1.311 -1.217,-1.311 -1.051,0 -1.249,0.614 -1.249,1.467 l 0,0.395 z" /></g><g
           transform="translate(36.0474,23.4368)"
           id="g82"><path
             id="path84"
             style="fill:#231f20;fill-opacity:1;fill-rule:nonzero;stroke:none"
             d="m 0,0 c -0.26,-0.178 -0.593,-0.344 -0.863,-0.5 -0.48,-0.281 -0.729,-0.613 -0.729,-1.186 0,-0.167 0.031,-0.801 0.687,-0.801 0.405,0 0.655,0.217 0.905,0.489 z M 0.655,-2.904 C 0.219,-2.894 0.073,-2.769 0,-2.498 c -0.156,-0.125 -0.5,-0.406 -1.02,-0.406 -0.728,0 -1.02,0.583 -1.02,1.228 0,1.489 1.374,1.582 2.029,2.164 v 0.719 c 0,0.406 -0.114,0.738 -0.644,0.738 -0.541,0 -0.719,-0.259 -0.719,-0.957 v -0.27 h -0.447 v 0.28 c 0,1.021 0.406,1.363 1.186,1.363 0.749,0 1.072,-0.405 1.072,-1.05 v -3.612 c 0,-0.176 0.146,-0.186 0.312,-0.186 v -0.417 z" /></g><g
           transform="translate(40.104,25.7669)"
           id="g86"><path
             id="path88"
             style="fill:#231f20;fill-opacity:1;fill-rule:nonzero;stroke:none"
             d="m 0,0 v -0.915 c 0.229,0.561 0.738,0.874 1.093,1.051 V -0.457 C 0.957,-0.499 0.801,-0.541 0.687,-0.613 0.26,-0.863 0.052,-1.426 0.01,-1.539 V -5.234 H -0.427 V 0 Z" /></g><g
           transform="translate(43.7876,24.5188)"
           id="g90"><path
             id="path92"
             style="fill:#231f20;fill-opacity:1;fill-rule:nonzero;stroke:none"
             d="m 0,0 c 0,0.604 -0.333,0.885 -0.749,0.885 -0.521,0 -0.76,-0.385 -0.76,-0.927 V -1.041 H 0 Z m 0.447,-2.82 c 0,-0.552 -0.301,-1.176 -1.207,-1.176 -0.655,0 -1.186,0.353 -1.186,1.217 v 2.81 c 0,0.635 0.281,1.248 1.186,1.248 0.781,0 1.207,-0.425 1.207,-1.352 v -1.343 h -1.956 v -1.29 c 0,-0.291 0.063,-0.884 0.749,-0.884 0.729,0 0.771,0.551 0.771,1.051 v 0.375 h 0.436 z" /></g><g
           transform="translate(47.23,24.6848)"
           id="g94"><path
             id="path96"
             style="fill:#231f20;fill-opacity:1;fill-rule:nonzero;stroke:none"
             d="m 0,0 c -0.072,0.385 -0.354,0.729 -0.78,0.729 -0.604,0 -0.729,-0.458 -0.729,-0.948 V -2.82 c 0,-0.666 0.281,-0.895 0.697,-0.895 0.323,0 0.708,0.239 0.812,0.781 z m 0.447,-4.526 c 0,-0.874 -0.603,-1.27 -1.29,-1.27 -0.385,0 -0.863,0.146 -1.041,0.53 -0.072,0.147 -0.094,0.282 -0.114,0.583 h 0.447 c 0.011,-0.042 0,-0.229 0.073,-0.384 0.157,-0.302 0.583,-0.302 0.646,-0.302 0.145,0 0.832,0.052 0.832,0.78 v 0.905 c -0.125,-0.114 -0.396,-0.458 -0.916,-0.458 -0.749,0 -1.03,0.552 -1.03,1.228 v 2.862 c 0,0.937 0.531,1.187 1.072,1.187 0.52,0 0.77,-0.333 0.874,-0.479 v 0.426 h 0.447 z" /></g><path
           id="path98"
           style="fill:#231f20;fill-opacity:1;fill-rule:nonzero;stroke:none"
           d="m 48.852,25.767 h 0.437 v -5.234 h -0.437 z m 0,1.426 H 49.3 v -0.811 h -0.448 z" /><g
           transform="translate(50.6724,22.3743)"
           id="g100"><path
             id="path102"
             style="fill:#231f20;fill-opacity:1;fill-rule:nonzero;stroke:none"
             d="m 0,0 v -0.457 c 0,-0.322 0,-0.979 0.812,-0.979 0.406,0 0.77,0.166 0.77,0.874 0,0.511 -0.125,0.656 -0.874,1.291 -0.594,0.5 -0.947,0.812 -0.947,1.561 0,0.447 0.114,1.124 1.102,1.124 1.083,0 1.093,-0.843 1.093,-1.249 V 1.801 H 1.509 v 0.364 c 0,0.562 -0.177,0.833 -0.646,0.833 -0.634,0 -0.655,-0.447 -0.655,-0.677 0,-0.489 0.021,-0.614 1.03,-1.446 0.5,-0.406 0.791,-0.697 0.791,-1.426 0,-0.769 -0.343,-1.311 -1.217,-1.311 -1.051,0 -1.249,0.614 -1.249,1.467 l 0,0.395 z" /></g><g
           transform="translate(53.1792,25.7669)"
           id="g104"><path
             id="path106"
             style="fill:#231f20;fill-opacity:1;fill-rule:nonzero;stroke:none"
             d="M 0,0 H 0.552 V 1.354 H 0.999 V 0 H 1.79 V -0.416 H 0.999 v -4.121 c 0,-0.301 0.302,-0.301 0.396,-0.301 0.134,0 0.281,0.01 0.395,0.021 v -0.417 c -0.177,-0.01 -0.333,-0.021 -0.469,-0.021 -0.582,0 -0.769,0.188 -0.769,0.604 v 4.235 l -0.552,0 z" /></g><g
           transform="translate(57.5278,24.5188)"
           id="g108"><path
             id="path110"
             style="fill:#231f20;fill-opacity:1;fill-rule:nonzero;stroke:none"
             d="m 0,0 c 0,0.604 -0.333,0.885 -0.749,0.885 -0.521,0 -0.76,-0.385 -0.76,-0.927 V -1.041 H 0 Z m 0.447,-2.82 c 0,-0.552 -0.301,-1.176 -1.207,-1.176 -0.655,0 -1.186,0.353 -1.186,1.217 v 2.81 c 0,0.635 0.281,1.248 1.186,1.248 0.781,0 1.207,-0.425 1.207,-1.352 v -1.343 h -1.956 v -1.29 c 0,-0.291 0.063,-0.884 0.749,-0.884 0.729,0 0.771,0.551 0.771,1.051 v 0.375 h 0.436 z" /></g><g
           transform="translate(59.4736,25.7669)"
           id="g112"><path
             id="path114"
             style="fill:#231f20;fill-opacity:1;fill-rule:nonzero;stroke:none"
             d="m 0,0 v -0.915 c 0.229,0.561 0.738,0.874 1.093,1.051 V -0.457 C 0.957,-0.499 0.801,-0.541 0.687,-0.613 0.26,-0.863 0.052,-1.426 0.01,-1.539 V -5.234 H -0.427 V 0 Z" /></g><g
           transform="translate(63.1563,24.5188)"
           id="g116"><path
             id="path118"
             style="fill:#231f20;fill-opacity:1;fill-rule:nonzero;stroke:none"
             d="m 0,0 c 0,0.604 -0.333,0.885 -0.749,0.885 -0.521,0 -0.76,-0.385 -0.76,-0.927 V -1.041 H 0 Z m 0.447,-2.82 c 0,-0.552 -0.301,-1.176 -1.207,-1.176 -0.655,0 -1.186,0.353 -1.186,1.217 v 2.81 c 0,0.635 0.281,1.248 1.186,1.248 0.781,0 1.207,-0.425 1.207,-1.352 v -1.343 h -1.956 v -1.29 c 0,-0.291 0.063,-0.884 0.749,-0.884 0.729,0 0.771,0.551 0.771,1.051 v 0.375 h 0.436 z" /></g><g
           transform="translate(66.5996,24.4251)"
           id="g120"><path
             id="path122"
             style="fill:#231f20;fill-opacity:1;fill-rule:nonzero;stroke:none"
             d="m 0,0 c -0.072,0.531 -0.312,0.926 -0.822,0.926 -0.49,0 -0.718,-0.437 -0.718,-0.822 v -2.716 c 0,-0.323 0.073,-0.926 0.718,-0.926 0.448,0 0.75,0.364 0.822,0.759 z m 0.021,-3.893 v 0.553 c -0.093,-0.178 -0.364,-0.594 -0.958,-0.594 -0.499,0 -1.041,0.313 -1.041,1.239 v 2.778 c 0,0.905 0.532,1.259 1.052,1.259 0.562,0 0.801,-0.354 0.926,-0.488 v 2.601 h 0.437 v -7.348 z" /></g><g
           transform="translate(69.834,25.7669)"
           id="g124"><path
             id="path126"
             style="fill:#231f20;fill-opacity:1;fill-rule:nonzero;stroke:none"
             d="M 0,0 H 0.552 V 1.354 H 0.999 V 0 H 1.79 V -0.416 H 0.999 v -4.121 c 0,-0.301 0.302,-0.301 0.396,-0.301 0.134,0 0.281,0.01 0.395,0.021 v -0.417 c -0.177,-0.01 -0.333,-0.021 -0.469,-0.021 -0.582,0 -0.769,0.188 -0.769,0.604 v 4.235 l -0.552,0 z" /></g><g
           transform="translate(72.7676,25.7669)"
           id="g128"><path
             id="path130"
             style="fill:#231f20;fill-opacity:1;fill-rule:nonzero;stroke:none"
             d="m 0,0 v -0.915 c 0.229,0.561 0.738,0.874 1.093,1.051 V -0.457 C 0.957,-0.499 0.801,-0.541 0.687,-0.613 0.26,-0.863 0.052,-1.426 0.01,-1.539 V -5.234 H -0.427 V 0 Z" /></g><g
           transform="translate(76.3887,23.4368)"
           id="g132"><path
             id="path134"
             style="fill:#231f20;fill-opacity:1;fill-rule:nonzero;stroke:none"
             d="m 0,0 c -0.26,-0.178 -0.593,-0.344 -0.863,-0.5 -0.48,-0.281 -0.729,-0.613 -0.729,-1.186 0,-0.167 0.031,-0.801 0.687,-0.801 0.406,0 0.655,0.217 0.905,0.489 z M 0.655,-2.904 C 0.219,-2.894 0.073,-2.769 0,-2.498 c -0.156,-0.125 -0.499,-0.406 -1.02,-0.406 -0.728,0 -1.02,0.583 -1.02,1.228 0,1.489 1.374,1.582 2.029,2.164 v 0.719 c 0,0.406 -0.114,0.738 -0.644,0.738 -0.541,0 -0.719,-0.259 -0.719,-0.957 v -0.27 h -0.447 v 0.28 c 0,1.021 0.406,1.363 1.186,1.363 0.749,0 1.072,-0.405 1.072,-1.05 v -3.612 c 0,-0.176 0.146,-0.186 0.312,-0.186 v -0.417 z" /></g><g
           transform="translate(79.8945,24.4251)"
           id="g136"><path
             id="path138"
             style="fill:#231f20;fill-opacity:1;fill-rule:nonzero;stroke:none"
             d="m 0,0 c -0.072,0.531 -0.312,0.926 -0.822,0.926 -0.49,0 -0.718,-0.437 -0.718,-0.822 v -2.716 c 0,-0.323 0.073,-0.926 0.718,-0.926 0.448,0 0.75,0.364 0.822,0.759 z m 0.021,-3.893 v 0.553 c -0.093,-0.178 -0.364,-0.594 -0.958,-0.594 -0.499,0 -1.041,0.313 -1.041,1.239 v 2.778 c 0,0.905 0.532,1.259 1.052,1.259 0.562,0 0.801,-0.354 0.926,-0.488 v 2.601 h 0.437 v -7.348 z" /></g><g
           transform="translate(83.3789,24.5188)"
           id="g140"><path
             id="path142"
             style="fill:#231f20;fill-opacity:1;fill-rule:nonzero;stroke:none"
             d="m 0,0 c 0,0.604 -0.333,0.885 -0.749,0.885 -0.521,0 -0.76,-0.385 -0.76,-0.927 V -1.041 H 0 Z m 0.447,-2.82 c 0,-0.552 -0.301,-1.176 -1.207,-1.176 -0.655,0 -1.186,0.353 -1.186,1.217 v 2.81 c 0,0.635 0.281,1.248 1.186,1.248 0.781,0 1.207,-0.425 1.207,-1.352 v -1.343 h -1.956 v -1.29 c 0,-0.291 0.063,-0.884 0.749,-0.884 0.729,0 0.771,0.551 0.771,1.051 v 0.375 h 0.436 z" /></g><g
           transform="translate(88.7998,20.5325)"
           id="g144"><path
             id="path146"
             style="fill:#231f20;fill-opacity:1;fill-rule:nonzero;stroke:none"
             d="m 0,0 v 3.965 c 0,0.541 -0.083,0.916 -0.655,0.916 -0.449,0 -0.729,-0.313 -0.854,-0.645 V 0 h -0.448 v 4.152 c 0,0.458 -0.249,0.74 -0.666,0.74 -0.468,0 -0.759,-0.365 -0.843,-0.573 V 0 h -0.436 v 5.234 h 0.447 V 4.798 c 0.145,0.187 0.5,0.499 0.978,0.499 0.582,0 0.801,-0.437 0.895,-0.624 0.114,0.167 0.416,0.635 1.051,0.635 0.489,0 0.978,-0.323 0.978,-1.156 L 0.447,0 Z" /></g><g
           transform="translate(92.2002,23.4368)"
           id="g148"><path
             id="path150"
             style="fill:#231f20;fill-opacity:1;fill-rule:nonzero;stroke:none"
             d="m 0,0 c -0.26,-0.178 -0.593,-0.344 -0.863,-0.5 -0.48,-0.281 -0.729,-0.613 -0.729,-1.186 0,-0.167 0.031,-0.801 0.687,-0.801 0.405,0 0.655,0.217 0.905,0.489 z M 0.655,-2.904 C 0.219,-2.894 0.073,-2.769 0,-2.498 c -0.156,-0.125 -0.5,-0.406 -1.02,-0.406 -0.728,0 -1.02,0.583 -1.02,1.228 0,1.489 1.374,1.582 2.029,2.164 v 0.719 c 0,0.406 -0.114,0.738 -0.644,0.738 -0.541,0 -0.719,-0.259 -0.719,-0.957 v -0.27 h -0.447 v 0.28 c 0,1.021 0.406,1.363 1.186,1.363 0.749,0 1.072,-0.405 1.072,-1.05 v -3.612 c 0,-0.176 0.146,-0.186 0.312,-0.186 v -0.417 z" /></g><g
           transform="translate(94.208,25.7669)"
           id="g152"><path
             id="path154"
             style="fill:#231f20;fill-opacity:1;fill-rule:nonzero;stroke:none"
             d="m 0,0 v -0.915 c 0.229,0.561 0.738,0.874 1.093,1.051 V -0.457 C 0.957,-0.499 0.801,-0.541 0.687,-0.613 0.26,-0.863 0.052,-1.426 0.01,-1.539 V -5.234 H -0.427 V 0 Z" /></g><g
           transform="translate(98.1299,20.5325)"
           id="g156"><path
             id="path158"
             style="fill:#231f20;fill-opacity:1;fill-rule:nonzero;stroke:none"
             d="m 0,0 -1.145,2.758 -0.5,-0.812 V 0 h -0.447 v 7.348 h 0.438 V 2.779 l 1.508,2.455 h 0.51 L -0.854,3.236 0.489,0 Z" /></g><g
           transform="translate(103.3105,24.4661)"
           id="g160"><path
             id="path162"
             style="fill:#231f20;fill-opacity:1;fill-rule:nonzero;stroke:none"
             d="m 0,0 c 0,0.375 -0.094,0.896 -0.739,0.896 -0.698,0 -0.812,-0.49 -0.812,-1 v -2.581 c 0,-0.551 0.281,-0.842 0.76,-0.842 0.676,0 0.791,0.551 0.791,0.905 z m 0.447,-2.56 c 0,-0.999 -0.562,-1.394 -1.238,-1.394 -0.729,0 -1.207,0.427 -1.207,1.134 v 2.893 c 0,0.646 0.333,1.259 1.259,1.259 0.832,0 1.186,-0.478 1.186,-1.27 z" /></g><g
           transform="translate(104.4434,25.7669)"
           id="g164"><path
             id="path166"
             style="fill:#231f20;fill-opacity:1;fill-rule:nonzero;stroke:none"
             d="m 0,0 h 0.625 v 1.27 c 0,0.375 0.239,0.843 0.926,0.843 0.094,0 0.177,-0.01 0.26,-0.021 V 1.687 c -0.021,0 -0.083,0.01 -0.156,0.01 -0.26,0 -0.604,-0.073 -0.604,-0.614 V 0 H 1.696 V -0.416 H 1.03 V -5.234 H 0.594 v 4.818 l -0.594,0 z" /></g><g
           transform="translate(7.0493,10.8919)"
           id="g168"><path
             id="path170"
             style="fill:#231f20;fill-opacity:1;fill-rule:nonzero;stroke:none"
             d="m 0,0 v -0.582 c 0,-0.553 0,-0.854 0.219,-1.135 0.239,-0.302 0.635,-0.353 0.852,-0.353 0.729,0 0.948,0.488 0.948,1.207 0,0.791 -0.229,1.144 -1.073,1.976 -0.821,0.823 -1.279,1.281 -1.279,2.311 0,0.613 0.083,1.623 1.404,1.623 1.332,0 1.354,-0.998 1.354,-1.695 V 2.82 h -0.5 v 0.657 c 0,0.447 0,1.133 -0.863,1.133 -0.635,0 -0.885,-0.385 -0.885,-1.103 0,-0.718 0.145,-1.02 1.249,-2.144 0.76,-0.78 1.102,-1.166 1.102,-2.133 0,-0.697 -0.093,-1.748 -1.498,-1.748 -0.853,0 -1.54,0.437 -1.54,1.488 l 0,1.03 z" /></g><g
           transform="translate(9.9937,13.722)"
           id="g172"><path
             id="path174"
             style="fill:#231f20;fill-opacity:1;fill-rule:nonzero;stroke:none"
             d="M 0,0 H 0.552 V 1.354 H 0.999 V 0 H 1.79 V -0.416 H 0.999 v -4.121 c 0,-0.301 0.302,-0.301 0.396,-0.301 0.134,0 0.281,0.01 0.395,0.021 v -0.417 c -0.177,-0.01 -0.333,-0.021 -0.469,-0.021 -0.582,0 -0.769,0.188 -0.769,0.604 v 4.235 l -0.552,0 z" /></g><g
           transform="translate(14.3423,12.4739)"
           id="g176"><path
             id="path178"
             style="fill:#231f20;fill-opacity:1;fill-rule:nonzero;stroke:none"
             d="m 0,0 c 0,0.604 -0.333,0.885 -0.749,0.885 -0.521,0 -0.76,-0.385 -0.76,-0.927 V -1.041 H 0 Z m 0.447,-2.82 c 0,-0.552 -0.301,-1.176 -1.207,-1.176 -0.655,0 -1.186,0.353 -1.186,1.217 v 2.81 c 0,0.635 0.281,1.248 1.186,1.248 0.781,0 1.207,-0.425 1.207,-1.352 v -1.343 h -1.956 v -1.29 c 0,-0.291 0.063,-0.884 0.749,-0.884 0.729,0 0.771,0.551 0.771,1.051 v 0.375 h 0.436 z" /></g><path
           id="path180"
           style="fill:#231f20;fill-opacity:1;fill-rule:nonzero;stroke:none"
           d="m 15.839,13.722 h 0.437 V 8.488 h -0.437 z m 0,1.426 h 0.448 v -0.811 h -0.448 z" /><g
           transform="translate(19.4595,8.4876)"
           id="g182"><path
             id="path184"
             style="fill:#231f20;fill-opacity:1;fill-rule:nonzero;stroke:none"
             d="m 0,0 v 4.121 c 0,0.385 -0.124,0.791 -0.645,0.791 -0.416,0 -0.697,-0.25 -0.874,-0.655 V 0 h -0.437 v 5.234 h 0.437 V 4.735 c 0.323,0.521 0.781,0.562 0.968,0.562 0.427,0 0.988,-0.238 0.988,-1.051 L 0.437,0 Z" /></g><g
           transform="translate(21.4878,9.8929)"
           id="g186"><path
             id="path188"
             style="fill:#231f20;fill-opacity:1;fill-rule:nonzero;stroke:none"
             d="m 0,0 c 0,-0.853 0.614,-1.04 0.833,-1.04 0.489,0 0.697,0.447 0.697,0.998 V 2.56 C 1.53,2.727 1.509,3.476 0.833,3.476 0.344,3.476 0,3.112 0,2.528 Z m -0.447,5.942 h 0.437 v -2.56 c 0.312,0.428 0.687,0.51 0.968,0.51 0.885,0 1.009,-0.76 1.009,-1.342 v -2.748 c 0,-0.479 -0.26,-1.239 -1.103,-1.239 -0.145,0 -0.603,0.022 -0.843,0.469 v -0.437 h -0.468 z" /></g><g
           transform="translate(26.4604,12.4739)"
           id="g190"><path
             id="path192"
             style="fill:#231f20;fill-opacity:1;fill-rule:nonzero;stroke:none"
             d="m 0,0 c 0,0.604 -0.333,0.885 -0.749,0.885 -0.521,0 -0.76,-0.385 -0.76,-0.927 V -1.041 H 0 Z m 0.447,-2.82 c 0,-0.552 -0.301,-1.176 -1.207,-1.176 -0.655,0 -1.186,0.353 -1.186,1.217 v 2.81 c 0,0.635 0.281,1.248 1.186,1.248 0.781,0 1.207,-0.425 1.207,-1.352 v -1.343 h -1.956 v -1.29 c 0,-0.291 0.063,-0.884 0.749,-0.884 0.729,0 0.771,0.551 0.771,1.051 v 0.375 h 0.436 z" /></g><g
           transform="translate(28.4058,13.722)"
           id="g194"><path
             id="path196"
             style="fill:#231f20;fill-opacity:1;fill-rule:nonzero;stroke:none"
             d="m 0,0 v -0.915 c 0.229,0.561 0.738,0.874 1.093,1.051 V -0.457 C 0.957,-0.499 0.801,-0.541 0.687,-0.613 0.26,-0.863 0.052,-1.426 0.01,-1.539 V -5.234 H -0.427 V 0 Z" /></g><g
           transform="translate(32.1714,12.6399)"
           id="g198"><path
             id="path200"
             style="fill:#231f20;fill-opacity:1;fill-rule:nonzero;stroke:none"
             d="m 0,0 c -0.072,0.385 -0.354,0.729 -0.78,0.729 -0.604,0 -0.729,-0.458 -0.729,-0.948 V -2.82 c 0,-0.666 0.281,-0.895 0.697,-0.895 0.323,0 0.708,0.239 0.812,0.781 z m 0.447,-4.526 c 0,-0.874 -0.603,-1.27 -1.29,-1.27 -0.385,0 -0.863,0.146 -1.041,0.53 -0.072,0.147 -0.094,0.282 -0.114,0.583 h 0.447 c 0.011,-0.042 0,-0.229 0.073,-0.384 0.157,-0.302 0.583,-0.302 0.646,-0.302 0.145,0 0.832,0.052 0.832,0.78 v 0.905 c -0.125,-0.114 -0.396,-0.458 -0.916,-0.458 -0.749,0 -1.03,0.552 -1.03,1.228 v 2.862 c 0,0.937 0.531,1.187 1.072,1.187 0.52,0 0.77,-0.333 0.874,-0.479 v 0.426 h 0.447 z" /></g><g
           transform="translate(39.4536,8.4876)"
           id="g202"><path
             id="path204"
             style="fill:#231f20;fill-opacity:1;fill-rule:nonzero;stroke:none"
             d="M 0,0 C 0,0.479 -0.01,5.109 -0.01,6.796 L -1.311,0 H -1.779 L -3.08,6.796 V 0 h -0.5 c 0,0.459 0.062,7.348 0.062,7.348 h 0.75 l 1.207,-6.276 1.228,6.276 H 0.416 C 0.427,6.566 0.489,0 0.489,0 Z" /></g><g
           transform="translate(43.0112,12.4739)"
           id="g206"><path
             id="path208"
             style="fill:#231f20;fill-opacity:1;fill-rule:nonzero;stroke:none"
             d="m 0,0 c 0,0.604 -0.333,0.885 -0.749,0.885 -0.521,0 -0.76,-0.385 -0.76,-0.927 V -1.041 H 0 Z m 0.447,-2.82 c 0,-0.552 -0.301,-1.176 -1.207,-1.176 -0.655,0 -1.186,0.353 -1.186,1.217 v 2.81 c 0,0.635 0.281,1.248 1.186,1.248 0.781,0 1.207,-0.425 1.207,-1.352 v -1.343 h -1.956 v -1.29 c 0,-0.291 0.063,-0.884 0.749,-0.884 0.729,0 0.771,0.551 0.771,1.051 v 0.375 h 0.436 z" /></g><g
           transform="translate(46.4536,12.3802)"
           id="g210"><path
             id="path212"
             style="fill:#231f20;fill-opacity:1;fill-rule:nonzero;stroke:none"
             d="m 0,0 c -0.072,0.531 -0.312,0.926 -0.822,0.926 -0.489,0 -0.718,-0.437 -0.718,-0.822 v -2.716 c 0,-0.323 0.073,-0.926 0.718,-0.926 0.448,0 0.75,0.364 0.822,0.759 z m 0.021,-3.893 v 0.553 c -0.093,-0.178 -0.364,-0.594 -0.958,-0.594 -0.499,0 -1.04,0.313 -1.04,1.239 v 2.778 c 0,0.905 0.531,1.259 1.051,1.259 0.562,0 0.801,-0.354 0.926,-0.488 v 2.601 h 0.437 v -7.348 z" /></g><path
           id="path214"
           style="fill:#231f20;fill-opacity:1;fill-rule:nonzero;stroke:none"
           d="m 48.076,13.722 h 0.437 V 8.488 h -0.437 z m 0,1.426 h 0.448 v -0.811 h -0.448 z" /><g
           transform="translate(51.4985,11.3919)"
           id="g216"><path
             id="path218"
             style="fill:#231f20;fill-opacity:1;fill-rule:nonzero;stroke:none"
             d="m 0,0 c -0.26,-0.178 -0.593,-0.344 -0.863,-0.5 -0.48,-0.281 -0.729,-0.613 -0.729,-1.186 0,-0.167 0.031,-0.801 0.687,-0.801 0.405,0 0.655,0.217 0.905,0.489 z M 0.655,-2.904 C 0.219,-2.894 0.073,-2.769 0,-2.498 c -0.156,-0.125 -0.5,-0.406 -1.02,-0.406 -0.728,0 -1.02,0.583 -1.02,1.228 0,1.489 1.374,1.582 2.029,2.164 v 0.719 c 0,0.406 -0.114,0.738 -0.644,0.738 -0.541,0 -0.719,-0.259 -0.719,-0.957 v -0.27 h -0.447 v 0.28 c 0,1.021 0.406,1.363 1.186,1.363 0.749,0 1.072,-0.405 1.072,-1.05 v -3.612 c 0,-0.176 0.146,-0.186 0.312,-0.186 v -0.417 z" /></g><g
           transform="translate(56.4497,15.3772)"
           id="g220"><path
             id="path222"
             style="fill:#231f20;fill-opacity:1;fill-rule:nonzero;stroke:none"
             d="M 0,0 V -6.89 H -0.521 V 0 H -1.8 V 0.458 H 1.301 L 1.301,0 Z" /></g><g
           transform="translate(59.6865,12.4739)"
           id="g224"><path
             id="path226"
             style="fill:#231f20;fill-opacity:1;fill-rule:nonzero;stroke:none"
             d="m 0,0 c 0,0.604 -0.333,0.885 -0.749,0.885 -0.521,0 -0.76,-0.385 -0.76,-0.927 V -1.041 H 0 Z m 0.447,-2.82 c 0,-0.552 -0.301,-1.176 -1.207,-1.176 -0.655,0 -1.187,0.353 -1.187,1.217 v 2.81 c 0,0.635 0.282,1.248 1.187,1.248 0.781,0 1.207,-0.425 1.207,-1.352 v -1.343 h -1.956 v -1.29 c 0,-0.291 0.063,-0.884 0.749,-0.884 0.729,0 0.771,0.551 0.771,1.051 v 0.375 h 0.436 z" /></g><g
           transform="translate(63.6279,9.8098)"
           id="g228"><path
             id="path230"
             style="fill:#231f20;fill-opacity:1;fill-rule:nonzero;stroke:none"
             d="m 0,0 c 0,-0.822 -0.312,-1.354 -1.28,-1.354 -0.906,0 -1.176,0.688 -1.176,1.323 v 2.622 c 0,0.989 0.52,1.321 1.207,1.321 0.844,0 1.197,-0.541 1.197,-1.383 V 2.05 h -0.437 v 0.417 c 0,0.519 -0.146,1.06 -0.749,1.06 -0.677,0 -0.771,-0.592 -0.771,-0.966 V 0.25 c 0,-0.51 0.031,-1.187 0.822,-1.187 0.625,0 0.729,0.479 0.729,0.853 v 0.76 l 0.458,0 z" /></g><g
           transform="translate(66.5508,8.4876)"
           id="g232"><path
             id="path234"
             style="fill:#231f20;fill-opacity:1;fill-rule:nonzero;stroke:none"
             d="M 0,0 V 3.913 C 0,4.382 -0.072,4.86 -0.687,4.86 -1.196,4.86 -1.467,4.465 -1.519,4.174 V 0 h -0.448 v 7.348 h 0.448 v -2.53 c 0.115,0.147 0.406,0.479 0.947,0.479 0.395,0 1.02,-0.197 1.02,-1.071 L 0.448,0 Z" /></g><g
           transform="translate(70.1182,8.4876)"
           id="g236"><path
             id="path238"
             style="fill:#231f20;fill-opacity:1;fill-rule:nonzero;stroke:none"
             d="m 0,0 v 4.121 c 0,0.385 -0.124,0.791 -0.645,0.791 -0.416,0 -0.697,-0.25 -0.874,-0.655 V 0 h -0.437 v 5.234 h 0.437 V 4.735 c 0.323,0.521 0.781,0.562 0.968,0.562 0.427,0 0.988,-0.238 0.988,-1.051 L 0.437,0 Z" /></g><g
           transform="translate(73.667,12.4212)"
           id="g240"><path
             id="path242"
             style="fill:#231f20;fill-opacity:1;fill-rule:nonzero;stroke:none"
             d="m 0,0 c 0,0.375 -0.094,0.896 -0.739,0.896 -0.698,0 -0.812,-0.49 -0.812,-1 v -2.581 c 0,-0.551 0.281,-0.842 0.76,-0.842 0.676,0 0.791,0.551 0.791,0.905 z m 0.447,-2.56 c 0,-0.999 -0.562,-1.394 -1.238,-1.394 -0.729,0 -1.207,0.427 -1.207,1.134 v 2.893 c 0,0.646 0.333,1.259 1.259,1.259 0.833,0 1.186,-0.478 1.186,-1.27 z" /></g><path
           id="path244"
           style="fill:#231f20;fill-opacity:1;fill-rule:nonzero;stroke:none"
           d="M 75.163,15.835 H 75.6 V 8.487 h -0.437 z" /><g
           transform="translate(78.7529,12.4212)"
           id="g246"><path
             id="path248"
             style="fill:#231f20;fill-opacity:1;fill-rule:nonzero;stroke:none"
             d="m 0,0 c 0,0.375 -0.094,0.896 -0.739,0.896 -0.698,0 -0.812,-0.49 -0.812,-1 v -2.581 c 0,-0.551 0.281,-0.842 0.76,-0.842 0.676,0 0.791,0.551 0.791,0.905 z m 0.447,-2.56 c 0,-0.999 -0.562,-1.394 -1.238,-1.394 -0.729,0 -1.207,0.427 -1.207,1.134 v 2.893 c 0,0.646 0.333,1.259 1.259,1.259 0.833,0 1.186,-0.478 1.186,-1.27 z" /></g><g
           transform="translate(82.29,12.6399)"
           id="g250"><path
             id="path252"
             style="fill:#231f20;fill-opacity:1;fill-rule:nonzero;stroke:none"
             d="m 0,0 c -0.072,0.385 -0.354,0.729 -0.78,0.729 -0.604,0 -0.729,-0.458 -0.729,-0.948 V -2.82 c 0,-0.666 0.281,-0.895 0.697,-0.895 0.323,0 0.708,0.239 0.812,0.781 z m 0.447,-4.526 c 0,-0.874 -0.603,-1.27 -1.29,-1.27 -0.385,0 -0.863,0.146 -1.041,0.53 -0.072,0.147 -0.093,0.282 -0.114,0.583 h 0.447 c 0.011,-0.042 0,-0.229 0.073,-0.384 0.157,-0.302 0.583,-0.302 0.646,-0.302 0.145,0 0.832,0.052 0.832,0.78 v 0.905 c -0.125,-0.114 -0.396,-0.458 -0.916,-0.458 -0.749,0 -1.03,0.552 -1.03,1.228 v 2.862 c 0,0.937 0.531,1.187 1.072,1.187 0.52,0 0.77,-0.333 0.874,-0.479 v 0.426 h 0.447 z" /></g><path
           id="path254"
           style="fill:#231f20;fill-opacity:1;fill-rule:nonzero;stroke:none"
           d="m 83.911,13.722 h 0.437 V 8.488 h -0.437 z m 0,1.426 h 0.448 v -0.811 h -0.448 z" /><g
           transform="translate(87.3975,12.4739)"
           id="g256"><path
             id="path258"
             style="fill:#231f20;fill-opacity:1;fill-rule:nonzero;stroke:none"
             d="m 0,0 c 0,0.604 -0.333,0.885 -0.749,0.885 -0.521,0 -0.76,-0.385 -0.76,-0.927 V -1.041 H 0 Z m 0.447,-2.82 c 0,-0.552 -0.301,-1.176 -1.207,-1.176 -0.655,0 -1.186,0.353 -1.186,1.217 v 2.81 c 0,0.635 0.281,1.248 1.186,1.248 0.781,0 1.207,-0.425 1.207,-1.352 v -1.343 h -1.956 v -1.29 c 0,-0.291 0.063,-0.884 0.749,-0.884 0.729,0 0.771,0.551 0.771,1.051 v 0.375 h 0.436 z" /></g><g
           transform="translate(89.0918,10.3294)"
           id="g260"><path
             id="path262"
             style="fill:#231f20;fill-opacity:1;fill-rule:nonzero;stroke:none"
             d="m 0,0 v -0.457 c 0,-0.322 0,-0.979 0.812,-0.979 0.406,0 0.77,0.166 0.77,0.874 0,0.511 -0.125,0.656 -0.874,1.291 -0.594,0.5 -0.947,0.812 -0.947,1.561 0,0.447 0.114,1.124 1.102,1.124 1.083,0 1.093,-0.843 1.093,-1.249 V 1.801 H 1.509 v 0.364 c 0,0.562 -0.177,0.833 -0.646,0.833 -0.634,0 -0.655,-0.447 -0.655,-0.677 0,-0.489 0.021,-0.614 1.03,-1.446 0.5,-0.406 0.791,-0.697 0.791,-1.426 0,-0.769 -0.343,-1.311 -1.217,-1.311 -1.051,0 -1.249,0.614 -1.249,1.467 l 0,0.395 z" /></g><g
           transform="translate(96.7383,8.4876)"
           id="g264"><path
             id="path266"
             style="fill:#231f20;fill-opacity:1;fill-rule:nonzero;stroke:none"
             d="m 0,0 v 0.583 c -0.146,-0.239 -0.541,-0.687 -1.229,-0.687 -0.436,0 -0.863,0.188 -1.102,0.563 -0.23,0.353 -0.281,0.666 -0.281,1.436 v 3.912 c 0,1.009 0.395,1.624 1.53,1.624 1.051,0 1.415,-0.666 1.415,-1.343 V 4.985 H -0.156 V 5.85 c 0,0.582 -0.136,1.144 -0.957,1.144 -0.791,0 -0.999,-0.553 -0.999,-1.197 V 2.04 c 0,-0.603 0.009,-0.927 0.145,-1.196 0.072,-0.157 0.312,-0.5 0.801,-0.5 0.656,0 1.041,0.75 1.041,1.228 V 2.904 H -1.207 V 3.352 H 0.385 L 0.385,0 Z" /></g><g
           transform="translate(102.2314,8.4876)"
           id="g268"><path
             id="path270"
             style="fill:#231f20;fill-opacity:1;fill-rule:nonzero;stroke:none"
             d="m 0,0 v 3.965 c 0,0.541 -0.083,0.916 -0.655,0.916 -0.449,0 -0.729,-0.313 -0.854,-0.645 V 0 h -0.448 v 4.152 c 0,0.458 -0.249,0.74 -0.666,0.74 -0.468,0 -0.759,-0.365 -0.843,-0.573 V 0 h -0.436 v 5.234 h 0.447 V 4.798 c 0.145,0.187 0.5,0.499 0.978,0.499 0.582,0 0.801,-0.437 0.895,-0.624 0.114,0.167 0.416,0.635 1.051,0.635 0.489,0 0.978,-0.323 0.978,-1.156 L 0.447,0 Z" /></g><g
           transform="translate(104.2891,9.8929)"
           id="g272"><path
             id="path274"
             style="fill:#231f20;fill-opacity:1;fill-rule:nonzero;stroke:none"
             d="m 0,0 c 0,-0.853 0.614,-1.04 0.833,-1.04 0.489,0 0.697,0.447 0.697,0.998 V 2.56 C 1.53,2.727 1.509,3.476 0.833,3.476 0.344,3.476 0,3.112 0,2.528 Z m -0.447,5.942 h 0.437 v -2.56 c 0.312,0.428 0.687,0.51 0.968,0.51 0.885,0 1.009,-0.76 1.009,-1.342 v -2.748 c 0,-0.479 -0.26,-1.239 -1.103,-1.239 -0.145,0 -0.603,0.022 -0.843,0.469 v -0.437 h -0.468 z" /></g><g
           transform="translate(109.7178,8.4876)"
           id="g276"><path
             id="path278"
             style="fill:#231f20;fill-opacity:1;fill-rule:nonzero;stroke:none"
             d="M 0,0 V 3.44 H -1.794 V 0 h -0.473 v 6.959 h 0.473 V 3.864 H 0 V 6.959 H 0.483 V 0 Z" /></g><g
           transform="translate(39.2334,89.303)"
           id="g280"><path
             id="path282"
             style="fill:#ffffff;fill-opacity:1;fill-rule:nonzero;stroke:none"
             d="m 0,0 h -0.061 l -4.226,-9.55 h 4.808 z m 0.816,-13.434 h -6.708 l -2.375,-5.137 h -4.84 L -1.948,4.412 H 3.565 L 6.373,-18.571 H 1.228 Z" /></g><g
           transform="translate(61.4521,89.0393)"
           id="g284"><path
             id="path286"
             style="fill:#ffffff;fill-opacity:1;fill-rule:nonzero;stroke:none"
             d="m 0,0 c -1.077,0.658 -2.669,1.185 -4.018,1.185 -1.623,0 -2.986,-0.79 -3.289,-2.502 -0.737,-4.182 8.029,-2.239 6.589,-10.405 -0.766,-4.347 -4.447,-6.981 -8.705,-6.981 -2.603,0 -4.723,0.659 -5.59,0.954 l 1.066,4.479 c 1.39,-0.626 2.568,-1.416 4.436,-1.416 1.593,0 3.275,0.856 3.606,2.733 0.784,4.446 -8.022,2.273 -6.577,10.471 0.123,0.692 1.401,6.553 8.568,6.553 1.961,0 3.122,-0.363 4.885,-0.79 z" /></g><g
           transform="translate(65.9219,93.7151)"
           id="g288"><path
             id="path290"
             style="fill:#ffffff;fill-opacity:1;fill-rule:nonzero;stroke:none"
             d="M 0,0 H 5.023 L 0.971,-22.983 h -5.024 z" /></g><g
           transform="translate(78.5029,74.222)"
           id="g292"><path
             id="path294"
             style="fill:#ffffff;fill-opacity:1;fill-rule:nonzero;stroke:none"
             d="m 0,0 c 2.909,0 4.584,3.589 5.362,8.002 0.779,4.411 0.369,8 -2.541,8 -2.909,0 -4.552,-3.589 -5.331,-8 C -3.288,3.589 -2.91,0 0,0 m 3.507,19.888 c 6.157,0 8.19,-5.137 7,-11.886 C 9.317,1.251 5.472,-3.885 -0.686,-3.885 c -6.155,0 -8.16,5.136 -6.969,11.887 1.19,6.749 5.007,11.886 11.162,11.886" /></g><g
           transform="translate(7.6904,81.5227)"
           id="g296"><path
             id="path298"
             style="fill:#ffffff;fill-opacity:1;fill-rule:nonzero;stroke:none"
             d="M 0,0 18.334,14.294 13.296,-14.29 Z" /></g><g
           transform="translate(109.8359,81.5271)"
           id="g300"><path
             id="path302"
             style="fill:#ffffff;fill-opacity:1;fill-rule:nonzero;stroke:none"
             d="m 0,0 -18.334,-14.298 5.042,28.591 z" /></g></g></g></g></svg>